# xmcd
#
# Track frame offsets:
#  150
#  8474
#  15810
#  27442
#  39401
#  51155
#  66454
#  79803
#  92495
#  107486
#  122770
#  132814
#  143836
#  156056
#  170878
#
# Disc length: 2495 seconds
#
# Revision: 0
# Processed by: cddbd v1.5.2PL0 Copyright (c) Steve Scherf et al.
# Submitted via: Collectorz.com Music Collector 6.9
#
DISCID=b609bd0f
DTITLE=Calyx - History Of Country Music [CD1]
DYEAR=2008
DGENRE=Christian Country - Country
TTITLE0=Country Music In My Soul
TTITLE1=Arkansas Traveler
TTITLE2=Wildwood Flower
TTITLE3=Waiting For A Train
TTITLE4=Don't Fence Me In
TTITLE5=I Wanna Be A Cowboy's Sweetheart
TTITLE6=Wabash Cannonball
TTITLE7=There's A Star-Spangled Banner Waving Somewhere
TTITLE8=Cold, Cold Heart
TTITLE9=The Wild Side Of Life/It Wasn't God Who Made Honky-Tonk Angels
TTITLE10=That's All Right, Mama
TTITLE11=He'll Have To Go
TTITLE12=Don't It Make My Brown Eyes Blue
TTITLE13=Forever And Ever, Amen
TTITLE14=If Tomorrow Never Comes
EXTD=
EXTT0=
EXTT1=
EXTT2=
EXTT3=
EXTT4=
EXTT5=
EXTT6=
EXTT7=
EXTT8=
EXTT9=
EXTT10=
EXTT11=
EXTT12=
EXTT13=
EXTT14=
PLAYORDER=
